<mxfile host="app.diagrams.net" modified="2024-01-28T13:11:45.380Z" agent="Mozilla/5.0 (Windows NT 10.0; Win64; x64) AppleWebKit/537.36 (KHTML, like Gecko) Chrome/121.0.0.0 Safari/537.36" version="23.0.2" etag="2CguL4mwI_XTIps4Gkmj" type="github">
  <diagram name="Page-1" id="d5nMU2C_UX_wMIvdWUfB">
    <mxGraphModel>
      <root>
        <mxCell id="0" />
        <mxCell id="1" parent="0" />
      </root>
    </mxGraphModel>
  </diagram>
</mxfile>
